<svg width="20" height="34" viewBox="0 0 20 34" fill="none" xmlns="http://www.w3.org/2000/svg">
<g clip-path="url(#clip0_11_562)">
<path d="M16.3449 27.1626C16.9987 25.5612 15.8202 23.1312 14.1661 23.98C12.9476 24.6062 13.2648 25.7432 14.188 27.3355C15.4986 29.5962 13.2172 31.1769 13.2172 31.1769C13.2172 31.1769 12.7838 28.3036 10.2971 28.7978C8.16969 29.2204 8.0821 32.726 9.00318 34C5.68067 33.6199 5.19226 29.0216 6.7459 27.3283C8.61436 25.2919 8.26405 22.5774 5.8581 22.6726C4.10893 22.7416 3.29965 24.8452 4.2259 26.9173C1.06422 25.6578 -0.206309 21.8306 0.0269605 19.4323C0.183979 17.8214 0.527487 15.8788 1.9324 14.217C4.41845 10.8801 8.99108 9.39673 13.1931 10.875C17.2516 12.3024 19.7255 16.0536 19.5911 19.9948C19.57 21.7722 19.1548 25.3482 16.3449 27.1626Z" fill="url(#paint0_linear_11_562)"/>
<path d="M14.4136 4.63636C14.4136 2.07577 12.3473 0 9.79825 0C7.24924 0 5.18286 2.07577 5.18286 4.63636C5.18286 7.19696 7.24924 9.27273 9.79825 9.27273C12.3473 9.27273 14.4136 7.19696 14.4136 4.63636Z" fill="#1A1A1A"/>
</g>
<defs>
<linearGradient id="paint0_linear_11_562" x1="10" y1="18.5" x2="10" y2="23" gradientUnits="userSpaceOnUse">
<stop stop-color="#1A1A1A"/>
<stop stop-color="#FF9F59"/>
<stop offset="0.135" stop-color="#FF9559"/>
<stop offset="1" stop-color="#FF5959"/>
</linearGradient>
<clipPath id="clip0_11_562">
<rect width="20" height="34" fill="white"/>
</clipPath>
</defs>
</svg>
